<?xml version="1.0" encoding="UTF-8"?>
<svg width="273px" height="197px" viewBox="0 0 273 197" version="1.1" xmlns="http://www.w3.org/2000/svg" xmlns:xlink="http://www.w3.org/1999/xlink">
    <!-- Generator: Sketch 64 (93537) - https://sketch.com -->
    <title>NAV CAN logo blue gradient@1.5x</title>
    <desc>Created with Sketch.</desc>
    <defs>
        <path d="M253.513931,1.36190476 L229.286207,55.7936508 C227.481103,59.8349206 224.543448,59.8253968 222.741517,55.784127 L222.741517,55.784127 L198.529655,1.36190476 L176.300552,1.36190476 L212.167862,81.9746032 C212.174207,81.9777778 212.174207,81.9777778 212.174207,81.9777778 L212.174207,81.9777778 C213.976138,86.0285714 219.071034,89.3396825 223.493379,89.3396825 L223.493379,89.3396825 L236.595448,89.3396825 L275.746207,1.36190476 L253.513931,1.36190476 Z M127.794345,1.36190476 L88.6467586,89.3396825 L110.87269,89.3396825 L135.097241,34.8984127 C136.902345,30.8603175 139.843172,30.8666667 141.638759,34.9111111 L141.638759,34.9111111 L165.860138,89.3396825 L188.092414,89.3396825 L152.218759,8.72063492 C152.218759,8.71746032 152.209241,8.71428571 152.209241,8.71111111 L152.209241,8.71111111 C150.40731,4.67301587 145.318759,1.36190476 140.893241,1.36190476 L140.893241,1.36190476 L127.794345,1.36190476 Z M60.5931034,1.36190476 L60.5931034,46.1936508 C60.5931034,49.8825397 58.7721379,50.4952381 56.5451034,47.5492063 L56.5451034,47.5492063 C56.5451034,47.5492063 25.6077241,6.66349206 25.5855172,6.63174603 L25.5855172,6.63174603 C23.3267586,3.73333333 18.5522759,1.36190476 14.8976552,1.36190476 L14.8976552,1.36190476 L3.01696552,1.36190476 L3.01696552,89.3396825 L23.2315862,89.3396825 L23.2315862,42.7714286 C23.2315862,39.0825397 25.0557241,38.4634921 27.2827586,41.4031746 L27.2827586,41.4031746 C27.2827586,41.4031746 59.5176552,84.0031746 59.524,84.0095238 L59.524,84.0095238 C61.7573793,86.9428571 66.5826207,89.3396825 70.2657931,89.3396825 L70.2657931,89.3396825 L80.776,89.3396825 L80.776,1.36190476 L60.5931034,1.36190476 Z M3.02648276,129.514286 C3.02648276,141.561905 11.8553103,150.653968 23.5805517,150.653968 L23.5805517,150.653968 C31.7495172,150.653968 36.4510345,147.025397 39.9533793,143.47619 L39.9533793,143.47619 L40.2230345,143.203175 L36.6921379,139.746032 L36.432,139.996825 C32.8503448,143.428571 29.3131034,145.711111 23.7011034,145.711111 L23.7011034,145.711111 C15.0308966,145.711111 8.4862069,138.698413 8.4862069,129.403175 L8.4862069,129.403175 C8.4862069,120.168254 15.0308966,113.196825 23.7011034,113.196825 L23.7011034,113.196825 C28.3708966,113.196825 32.0826207,114.819048 36.0798621,118.622222 L36.0798621,118.622222 L36.3590345,118.888889 L39.9851034,114.996825 L39.705931,114.72381 C36.1369655,111.374603 31.7304828,108.250794 23.7582069,108.250794 L23.7582069,108.250794 C11.9441379,108.250794 3.02648276,117.4 3.02648276,129.514286 L3.02648276,129.514286 Z M246.712276,108.660317 L228.274207,149.434921 L228.026759,149.968254 L233.50869,149.968254 L238.283172,139.32381 L259.700138,139.32381 L264.408,149.968254 L270.140552,149.968254 L251.553379,108.869841 L251.455034,108.660317 L246.712276,108.660317 Z M249.028138,115.250794 L257.584138,134.492063 L240.40869,134.492063 L249.028138,115.250794 Z M157.837103,108.660317 L139.389517,149.434921 L139.145241,149.968254 L144.630345,149.968254 L149.417517,139.32381 L170.828138,139.32381 L175.542345,149.968254 L181.259034,149.968254 L162.678207,108.869841 L162.57669,108.660317 L157.837103,108.660317 Z M160.149793,115.250794 L168.71531,134.492063 L151.53669,134.492063 L160.149793,115.250794 Z M125.627586,108.660317 L125.627586,140.222222 L100.943034,108.796825 L100.835172,108.660317 L96.0067586,108.660317 L96.0067586,149.968254 L101.190483,149.968254 L101.190483,117.657143 L126.506345,149.822222 L126.614207,149.968254 L130.804966,149.968254 L130.804966,108.660317 L125.627586,108.660317 Z M64.2413793,108.660317 L45.7874483,149.434921 L45.5431724,149.968254 L51.0409655,149.968254 L55.8091034,139.32381 L77.2228966,139.32381 L81.933931,149.968254 L87.6537931,149.968254 L69.0824828,108.869841 L68.9682759,108.660317 L64.2413793,108.660317 Z M66.5445517,115.250794 L75.110069,134.492063 L57.9441379,134.492063 L66.5445517,115.250794 Z M189.263034,108.942857 L189.263034,149.968254 L203.624552,149.968254 C216.234897,149.968254 225.390483,141.326984 225.390483,129.403175 L225.390483,129.403175 C225.390483,117.549206 216.234897,108.942857 203.624552,108.942857 L203.624552,108.942857 L189.263034,108.942857 Z M194.564138,113.888889 L203.624552,113.888889 C213.214759,113.888889 219.921241,120.31746 219.921241,129.514286 L219.921241,129.514286 C219.921241,138.64127 213.214759,145.006349 203.624552,145.006349 L203.624552,145.006349 L194.564138,145.006349 L194.564138,113.888889 Z M25.9915862,193.203175 L23.2315862,197.955556 L138.374345,182.419048 L253.513931,197.955556 L250.753931,193.203175 L138.374345,169.234921 L25.9915862,193.203175 Z" id="path-1"></path>
        <radialGradient cx="50.7519806%" cy="50.927488%" fx="50.7519806%" fy="50.927488%" r="92.9252737%" gradientTransform="translate(0.507520,0.509275),scale(0.720838,1.000000),scale(1.000000,0.797006),translate(-0.507520,-0.509275)" id="radialGradient-3">
            <stop stop-color="#00A5DB" offset="0%"></stop>
            <stop stop-color="#00529C" offset="100%"></stop>
        </radialGradient>
    </defs>
    <g id="Design-Elements" stroke="none" stroke-width="1" fill="none" fill-rule="evenodd">
        <g id="NAV-CAN-logo-blue-gradient" transform="translate(-3.000000, -1.000000)">
            <mask id="mask-2" fill="white">
                <use xlink:href="#path-1"></use>
            </mask>
            <g id="Clip-2"></g>
            <path d="M253.513931,1.36190476 L229.286207,55.7936508 C227.481103,59.8349206 224.543448,59.8253968 222.741517,55.784127 L222.741517,55.784127 L198.529655,1.36190476 L176.300552,1.36190476 L212.167862,81.9746032 C212.174207,81.9777778 212.174207,81.9777778 212.174207,81.9777778 L212.174207,81.9777778 C213.976138,86.0285714 219.071034,89.3396825 223.493379,89.3396825 L223.493379,89.3396825 L236.595448,89.3396825 L275.746207,1.36190476 L253.513931,1.36190476 Z M127.794345,1.36190476 L88.6467586,89.3396825 L110.87269,89.3396825 L135.097241,34.8984127 C136.902345,30.8603175 139.843172,30.8666667 141.638759,34.9111111 L141.638759,34.9111111 L165.860138,89.3396825 L188.092414,89.3396825 L152.218759,8.72063492 C152.218759,8.71746032 152.209241,8.71428571 152.209241,8.71111111 L152.209241,8.71111111 C150.40731,4.67301587 145.318759,1.36190476 140.893241,1.36190476 L140.893241,1.36190476 L127.794345,1.36190476 Z M60.5931034,1.36190476 L60.5931034,46.1936508 C60.5931034,49.8825397 58.7721379,50.4952381 56.5451034,47.5492063 L56.5451034,47.5492063 C56.5451034,47.5492063 25.6077241,6.66349206 25.5855172,6.63174603 L25.5855172,6.63174603 C23.3267586,3.73333333 18.5522759,1.36190476 14.8976552,1.36190476 L14.8976552,1.36190476 L3.01696552,1.36190476 L3.01696552,89.3396825 L23.2315862,89.3396825 L23.2315862,42.7714286 C23.2315862,39.0825397 25.0557241,38.4634921 27.2827586,41.4031746 L27.2827586,41.4031746 C27.2827586,41.4031746 59.5176552,84.0031746 59.524,84.0095238 L59.524,84.0095238 C61.7573793,86.9428571 66.5826207,89.3396825 70.2657931,89.3396825 L70.2657931,89.3396825 L80.776,89.3396825 L80.776,1.36190476 L60.5931034,1.36190476 Z M3.02648276,129.514286 C3.02648276,141.561905 11.8553103,150.653968 23.5805517,150.653968 L23.5805517,150.653968 C31.7495172,150.653968 36.4510345,147.025397 39.9533793,143.47619 L39.9533793,143.47619 L40.2230345,143.203175 L36.6921379,139.746032 L36.432,139.996825 C32.8503448,143.428571 29.3131034,145.711111 23.7011034,145.711111 L23.7011034,145.711111 C15.0308966,145.711111 8.4862069,138.698413 8.4862069,129.403175 L8.4862069,129.403175 C8.4862069,120.168254 15.0308966,113.196825 23.7011034,113.196825 L23.7011034,113.196825 C28.3708966,113.196825 32.0826207,114.819048 36.0798621,118.622222 L36.0798621,118.622222 L36.3590345,118.888889 L39.9851034,114.996825 L39.705931,114.72381 C36.1369655,111.374603 31.7304828,108.250794 23.7582069,108.250794 L23.7582069,108.250794 C11.9441379,108.250794 3.02648276,117.4 3.02648276,129.514286 L3.02648276,129.514286 Z M246.712276,108.660317 L228.274207,149.434921 L228.026759,149.968254 L233.50869,149.968254 L238.283172,139.32381 L259.700138,139.32381 L264.408,149.968254 L270.140552,149.968254 L251.553379,108.869841 L251.455034,108.660317 L246.712276,108.660317 Z M249.028138,115.250794 L257.584138,134.492063 L240.40869,134.492063 L249.028138,115.250794 Z M157.837103,108.660317 L139.389517,149.434921 L139.145241,149.968254 L144.630345,149.968254 L149.417517,139.32381 L170.828138,139.32381 L175.542345,149.968254 L181.259034,149.968254 L162.678207,108.869841 L162.57669,108.660317 L157.837103,108.660317 Z M160.149793,115.250794 L168.71531,134.492063 L151.53669,134.492063 L160.149793,115.250794 Z M125.627586,108.660317 L125.627586,140.222222 L100.943034,108.796825 L100.835172,108.660317 L96.0067586,108.660317 L96.0067586,149.968254 L101.190483,149.968254 L101.190483,117.657143 L126.506345,149.822222 L126.614207,149.968254 L130.804966,149.968254 L130.804966,108.660317 L125.627586,108.660317 Z M64.2413793,108.660317 L45.7874483,149.434921 L45.5431724,149.968254 L51.0409655,149.968254 L55.8091034,139.32381 L77.2228966,139.32381 L81.933931,149.968254 L87.6537931,149.968254 L69.0824828,108.869841 L68.9682759,108.660317 L64.2413793,108.660317 Z M66.5445517,115.250794 L75.110069,134.492063 L57.9441379,134.492063 L66.5445517,115.250794 Z M189.263034,108.942857 L189.263034,149.968254 L203.624552,149.968254 C216.234897,149.968254 225.390483,141.326984 225.390483,129.403175 L225.390483,129.403175 C225.390483,117.549206 216.234897,108.942857 203.624552,108.942857 L203.624552,108.942857 L189.263034,108.942857 Z M194.564138,113.888889 L203.624552,113.888889 C213.214759,113.888889 219.921241,120.31746 219.921241,129.514286 L219.921241,129.514286 C219.921241,138.64127 213.214759,145.006349 203.624552,145.006349 L203.624552,145.006349 L194.564138,145.006349 L194.564138,113.888889 Z M25.9915862,193.203175 L23.2315862,197.955556 L138.374345,182.419048 L253.513931,197.955556 L250.753931,193.203175 L138.374345,169.234921 L25.9915862,193.203175 Z" id="Fill-1" fill="url(#radialGradient-3)" mask="url(#mask-2)"></path>
        </g>
    </g>
</svg>