<svg width="606.7" height="605.3" viewBox="0 0 160.5 160.2" xmlns="http://www.w3.org/2000/svg"><g style="display:inline" transform="translate(-7.8 -64.6)"><ellipse cx="88" cy="144.7" style="fill:#0f385a;fill-opacity:.95642489;stroke:none;stroke-width:2;stroke-miterlimit:4;stroke-dasharray:none;stroke-opacity:1" rx="79.3" ry="79.1"/><path style="fill:#fff;fill-opacity:1;stroke:none;stroke-width:.264583px;stroke-linecap:butt;stroke-linejoin:miter;stroke-opacity:1" d="m58.8 116.3-3 19.4s-.7 6 3 9.2c3.4 2.7 9.4 1.7 9.4 1.7s4-.7 5.5-3c1.5-2.4.4 2.8.4 2.8h8.6l4.8-30.1h-8.8l-2.6 16.9s-1.7 5.8-5.9 6.2c-4.3.4-5.3-1.4-5.6-3.9-.2-2.4 2.5-19.2 2.5-19.2z"/><path style="fill:#23c1e0;fill-opacity:1;stroke:none;stroke-width:.264583px;stroke-linecap:butt;stroke-linejoin:miter;stroke-opacity:1" d="M49.8 94.6V118l-9.2-9.1zm66.4 59.1 6 28.7h6.3l15.2-28.8h-5.5l-11.9 22-3.8-21.8z"/><path style="fill:#fff;fill-opacity:1;stroke:none;stroke-width:.264583px;stroke-linecap:butt;stroke-linejoin:miter;stroke-opacity:1" d="m58.8 103.4-24-.1 5.8 5.6-6.8 9.9z"/><path style="display:inline;fill:#22bfde;fill-opacity:.999172;stroke-width:1.04077" d="M352.5 333.5a65.2 65.2.0 00-61.3 42.4c-13 31.8.0 64 28.9 72 29 8 63-11.2 75.9-43 13-31.7-2.1-62.4-26-69.3-4-1-13.2-2-17.5-2.1zM348 353c16.9-.7 24.1 8.2 26.2 11.1 4.4 6.1 9.1 27.5-1.9 45.5-11 17.9-36.6 23-52 14.6-15.3-8.4-15.4-33.4-4.4-51.3a39.6 39.6.0 0132.1-20z" transform="translate(7.8 64.6) scale(.26458)"/><path style="display:inline;fill:#23c1e0;fill-opacity:1;stroke:none;stroke-width:1.07418;stroke-opacity:1" d="M217 334.5c-16 .4-28.9 9.2-40.3 21.4-20.5 24.7-23.9 57-3.4 78.6 19.2 18 46.5 16.7 69-1a59.8 59.8.0 01-10.5 30c-14.3 12.7-26.1 14.5-39.5 11.9a89.6 89.6.0 01-27.2-11.9l-11.4 16.2s16.2 13.7 38 14.2c21.6.5 26.9 1.3 44.8-10a69.4 69.4.0 0025.2-33.4l16.8-114.6-17.5-.2-3 17.2a49.6 49.6.0 00-37.7-18.4H217zm3.3 16.4c6.8-.2 15.5 4.2 20.5 8 14.1 10.9 13 37.5.0 54.5S203 433.8 189 423c-14.1-10.9-13.2-37-.1-54 7.8-10.3 20-17.9 31.4-18.1z" transform="translate(7.8 64.6) scale(.26458)"/><path style="fill:#fff;fill-opacity:1;stroke:none;stroke-width:.999999px;stroke-linecap:butt;stroke-linejoin:miter;stroke-opacity:1" d="M469 193.5c-24.4.0-55 5.6-63.1 56.8-9 56.4 26.4 61 45.5 61 19.2.0 34.2-15.7 34.2-15.7l-.6 11.1h33.2l17.1-112h-29.5l-4 14.9s-.5-15.2-25.5-16l-7.4-.1zm1.1 26a26.4 33.3 23.2 018.3 1.2 26.4 33.3 23.2 0113.1 39.9A26.4 33.3 23.2 01454.8 283a26.4 33.3 23.2 01-13.1-40 26.4 33.3 23.2 0128.4-23.5z" transform="translate(7.8 64.6) scale(.26458)"/><path style="fill:#fff;fill-opacity:.960718;stroke:none;stroke-width:.264583px;stroke-linecap:butt;stroke-linejoin:miter;stroke-opacity:1" d="m108.2 124.8 5.7-3.7s-2.2-3.8-6.6-5.3c-4.5-1.4-9.3.0-12 1.8a9.7 9.7.0 00-4.2 8.2c.1 3.2 1.1 5.7 5.6 7.6 4.4 1.8 7.4 2.8 7 4.6-.5 1.7-2 2.1-5.2 2-3-.2-5.6-4.2-5.6-4.2l-6.3 4.2s2.7 3.8 5.8 5.7c3.2 1.9 9 1.6 13.5-.6 4.4-2.2 5.5-5.6 5.8-7.2.3-1.7.0-4.3-1.6-6-1.7-1.6-4.4-2.6-6.6-3.4-2.2-.9-5-2.2-4.6-4.3.4-2 2.3-3 4.4-2.7 2.2.3 4.9 3.3 4.9 3.3z"/></g></svg>